<svg width="34" height="43" viewBox="0 0 34 43" fill="none" xmlns="http://www.w3.org/2000/svg">
<path d="M28.4167 16.75H5.08333C3.24238 16.75 1.75 18.2424 1.75 20.0833V37.75C1.75 39.591 3.24238 41.0833 5.08333 41.0833H28.4167C30.2576 41.0833 31.75 39.591 31.75 37.75V20.0833C31.75 18.2424 30.2576 16.75 28.4167 16.75Z" fill="#2B2676"/>
<path d="M8.41667 16.75V10.0833C8.41667 7.8732 9.29464 5.75358 10.8574 4.19078C12.4202 2.62797 14.5399 1.75 16.75 1.75C18.9601 1.75 21.0798 2.62797 22.6426 4.19078C24.2054 5.75358 25.0833 7.8732 25.0833 10.0833V16.75M5.08333 16.75H28.4167C30.2576 16.75 31.75 18.2424 31.75 20.0833V37.75C31.75 39.591 30.2576 41.0833 28.4167 41.0833H5.08333C3.24238 41.0833 1.75 39.591 1.75 37.75V20.0833C1.75 18.2424 3.24238 16.75 5.08333 16.75Z" stroke="#2B2676" stroke-width="3.5" stroke-linecap="round" stroke-linejoin="round"/>
</svg>
