<svg width="161" height="35" viewBox="0 0 161 35" fill="none" xmlns="http://www.w3.org/2000/svg">
<path d="M3.672 17.244C4.2 18.18 4.776 18.996 5.4 19.692C6.048 20.388 6.756 20.928 7.524 21.312C8.292 21.696 9.12 21.888 10.008 21.888C11.04 21.888 11.88 21.624 12.528 21.096C13.176 20.568 13.5 19.848 13.5 18.936C13.5 18.144 13.296 17.508 12.888 17.028C12.504 16.548 11.916 16.128 11.124 15.768C10.356 15.384 9.408 14.976 8.28 14.544C7.68 14.328 6.984 14.04 6.192 13.68C5.424 13.296 4.692 12.816 3.996 12.24C3.3 11.64 2.724 10.92 2.268 10.08C1.812 9.21598 1.584 8.18398 1.584 6.98398C1.584 5.54398 1.944 4.30798 2.664 3.27598C3.408 2.21998 4.404 1.41598 5.652 0.863977C6.924 0.287978 8.34 -2.21729e-05 9.9 -2.21729e-05C11.508 -2.21729e-05 12.888 0.275978 14.04 0.827978C15.216 1.35598 16.188 2.03998 16.956 2.87998C17.748 3.69598 18.36 4.54798 18.792 5.43598L14.76 7.66798C14.424 7.06798 14.016 6.52798 13.536 6.04798C13.08 5.54398 12.552 5.14798 11.952 4.85998C11.352 4.54798 10.668 4.39198 9.9 4.39198C8.892 4.39198 8.136 4.63198 7.632 5.11198C7.128 5.56798 6.876 6.10798 6.876 6.73198C6.876 7.35598 7.08 7.90798 7.488 8.38798C7.896 8.84398 8.52 9.28798 9.36 9.71998C10.2 10.128 11.256 10.548 12.528 10.98C13.344 11.268 14.124 11.628 14.868 12.06C15.636 12.492 16.32 13.02 16.92 13.644C17.544 14.244 18.024 14.964 18.36 15.804C18.72 16.62 18.9 17.568 18.9 18.648C18.9 19.872 18.66 20.964 18.18 21.924C17.7 22.884 17.04 23.7 16.2 24.372C15.36 25.02 14.412 25.512 13.356 25.848C12.324 26.208 11.232 26.388 10.08 26.388C8.544 26.388 7.104 26.1 5.76 25.524C4.44 24.924 3.288 24.12 2.304 23.112C1.32 22.104 0.552002 21.012 1.68383e-06 19.836L3.672 17.244ZM22.4491 2.73598C22.4491 1.96798 22.7251 1.34398 23.2771 0.863977C23.8291 0.359978 24.4891 0.107979 25.2571 0.107979C26.0251 0.107979 26.6731 0.359978 27.2011 0.863977C27.7531 1.34398 28.0291 1.96798 28.0291 2.73598C28.0291 3.47998 27.7531 4.10398 27.2011 4.60798C26.6731 5.11198 26.0251 5.36398 25.2571 5.36398C24.4891 5.36398 23.8291 5.11198 23.2771 4.60798C22.7251 4.10398 22.4491 3.47998 22.4491 2.73598ZM22.9531 9.14398H27.4891V25.704H22.9531V9.14398ZM31.6465 26.856H36.2185C36.2425 27.576 36.4345 28.188 36.7945 28.692C37.1545 29.22 37.6465 29.628 38.2705 29.916C38.8945 30.204 39.6265 30.348 40.4665 30.348C41.2345 30.348 41.9545 30.168 42.6265 29.808C43.3225 29.448 43.8745 28.896 44.2825 28.152C44.7145 27.408 44.9305 26.472 44.9305 25.344V9.14398H49.4305V25.344C49.4305 27.384 49.0225 29.064 48.2065 30.384C47.4145 31.704 46.3465 32.664 45.0025 33.264C43.6585 33.888 42.1945 34.2 40.6105 34.2C38.6905 34.2 37.0825 33.888 35.7865 33.264C34.4905 32.664 33.4945 31.8 32.7985 30.672C32.1265 29.568 31.7425 28.296 31.6465 26.856ZM31.3225 17.28C31.3225 15.432 31.6945 13.884 32.4385 12.636C33.1825 11.364 34.1665 10.404 35.3905 9.75598C36.6145 9.10798 37.9105 8.78398 39.2785 8.78398C40.6705 8.78398 41.8945 9.11998 42.9505 9.79198C44.0305 10.464 44.8705 11.436 45.4705 12.708C46.0945 13.956 46.4065 15.48 46.4065 17.28C46.4065 19.056 46.0945 20.58 45.4705 21.852C44.8705 23.124 44.0305 24.096 42.9505 24.768C41.8945 25.416 40.6705 25.74 39.2785 25.74C37.9105 25.74 36.6145 25.416 35.3905 24.768C34.1665 24.12 33.1825 23.172 32.4385 21.924C31.6945 20.652 31.3225 19.104 31.3225 17.28ZM36.1465 17.28C36.1465 18.264 36.3505 19.104 36.7585 19.8C37.1665 20.472 37.7185 20.988 38.4145 21.348C39.1105 21.708 39.8545 21.888 40.6465 21.888C41.3425 21.888 42.0145 21.72 42.6625 21.384C43.3345 21.024 43.8745 20.508 44.2825 19.836C44.7145 19.14 44.9305 18.288 44.9305 17.28C44.9305 16.512 44.8105 15.84 44.5705 15.264C44.3305 14.688 43.9945 14.208 43.5625 13.824C43.1545 13.44 42.6985 13.152 42.1945 12.96C41.6905 12.744 41.1745 12.636 40.6465 12.636C39.8545 12.636 39.1105 12.816 38.4145 13.176C37.7185 13.536 37.1665 14.064 36.7585 14.76C36.3505 15.432 36.1465 16.272 36.1465 17.28ZM64.6462 15.624C64.6462 14.52 64.4302 13.68 63.9982 13.104C63.5662 12.528 62.8702 12.24 61.9102 12.24C61.2622 12.24 60.6862 12.384 60.1822 12.672C59.6782 12.936 59.2942 13.32 59.0302 13.824C58.7662 14.328 58.6342 14.928 58.6342 15.624V25.704H53.9542V9.14398H58.6342V11.664C59.1382 10.728 59.7982 10.02 60.6142 9.53998C61.4542 9.03598 62.4622 8.78398 63.6382 8.78398C65.6062 8.78398 67.0702 9.34798 68.0302 10.476C68.9902 11.58 69.4702 13.128 69.4702 15.12V25.704H64.6462V15.624ZM74.4955 0.503978H79.6435V21.204H89.6875V25.704H74.4955V0.503978ZM100.016 26.064C98.2162 26.064 96.6442 25.704 95.3002 24.984C93.9562 24.264 92.9122 23.268 92.1682 21.996C91.4482 20.7 91.0882 19.176 91.0882 17.424C91.0882 15.648 91.4482 14.124 92.1682 12.852C92.9122 11.556 93.9562 10.56 95.3002 9.86398C96.6442 9.14398 98.2282 8.78398 100.052 8.78398C101.876 8.78398 103.424 9.11998 104.696 9.79198C105.992 10.44 106.976 11.4 107.648 12.672C108.32 13.92 108.656 15.432 108.656 17.208C108.656 17.424 108.644 17.652 108.62 17.892C108.62 18.132 108.608 18.324 108.584 18.468H93.7522V15.588H104.516L103.256 17.244C103.352 17.1 103.436 16.908 103.508 16.668C103.604 16.404 103.652 16.188 103.652 16.02C103.652 15.204 103.496 14.508 103.184 13.932C102.896 13.356 102.476 12.9 101.924 12.564C101.372 12.228 100.724 12.06 99.9802 12.06C99.0682 12.06 98.3002 12.264 97.6762 12.672C97.0762 13.056 96.6082 13.644 96.2722 14.436C95.9602 15.204 95.7922 16.164 95.7682 17.316C95.7682 18.42 95.9242 19.356 96.2362 20.124C96.5722 20.892 97.0642 21.48 97.7122 21.888C98.3602 22.296 99.1402 22.5 100.052 22.5C101.084 22.5 101.96 22.308 102.68 21.924C103.424 21.516 104.036 20.916 104.516 20.124L108.584 21.384C107.72 22.944 106.568 24.12 105.128 24.912C103.712 25.68 102.008 26.064 100.016 26.064ZM115.485 20.556C115.485 21.036 115.605 21.456 115.845 21.816C116.085 22.152 116.409 22.416 116.817 22.608C117.249 22.776 117.717 22.86 118.221 22.86C118.941 22.86 119.589 22.716 120.165 22.428C120.741 22.116 121.209 21.684 121.569 21.132C121.929 20.556 122.109 19.872 122.109 19.08L122.685 21.24C122.685 22.296 122.385 23.184 121.785 23.904C121.209 24.624 120.453 25.164 119.517 25.524C118.605 25.884 117.645 26.064 116.637 26.064C115.605 26.064 114.645 25.86 113.757 25.452C112.869 25.044 112.149 24.456 111.597 23.688C111.069 22.896 110.805 21.936 110.805 20.808C110.805 19.2 111.369 17.928 112.497 16.992C113.625 16.056 115.221 15.588 117.285 15.588C118.341 15.588 119.265 15.696 120.057 15.912C120.873 16.128 121.557 16.392 122.109 16.704C122.661 17.016 123.057 17.316 123.297 17.604V19.764C122.649 19.284 121.917 18.924 121.101 18.684C120.309 18.444 119.469 18.324 118.581 18.324C117.861 18.324 117.273 18.42 116.817 18.612C116.361 18.78 116.025 19.032 115.809 19.368C115.593 19.68 115.485 20.076 115.485 20.556ZM113.685 13.824L111.957 10.656C112.821 10.2 113.877 9.76798 115.125 9.35998C116.373 8.92798 117.765 8.71198 119.301 8.71198C120.717 8.71198 121.977 8.91598 123.081 9.32398C124.185 9.73198 125.049 10.332 125.673 11.124C126.297 11.892 126.609 12.84 126.609 13.968V25.704H122.109V14.94C122.109 14.484 122.037 14.1 121.893 13.788C121.749 13.452 121.521 13.176 121.209 12.96C120.921 12.744 120.573 12.588 120.165 12.492C119.757 12.396 119.301 12.348 118.797 12.348C118.029 12.348 117.297 12.432 116.601 12.6C115.905 12.768 115.305 12.972 114.801 13.212C114.297 13.452 113.925 13.656 113.685 13.824ZM135.518 9.14398V25.704H130.946V9.14398H135.518ZM140.378 14.004C140.066 13.716 139.742 13.5 139.406 13.356C139.094 13.188 138.698 13.104 138.218 13.104C137.642 13.104 137.15 13.26 136.742 13.572C136.334 13.884 136.022 14.328 135.806 14.904C135.614 15.456 135.518 16.128 135.518 16.92L134.222 15.624C134.222 14.304 134.474 13.14 134.978 12.132C135.482 11.1 136.142 10.284 136.958 9.68398C137.774 9.05998 138.614 8.74798 139.478 8.74798C140.078 8.74798 140.642 8.85598 141.17 9.07198C141.722 9.28798 142.166 9.61198 142.502 10.044L140.378 14.004ZM155.666 15.624C155.666 14.52 155.45 13.68 155.018 13.104C154.586 12.528 153.89 12.24 152.93 12.24C152.282 12.24 151.706 12.384 151.202 12.672C150.698 12.936 150.314 13.32 150.05 13.824C149.786 14.328 149.654 14.928 149.654 15.624V25.704H144.974V9.14398H149.654V11.664C150.158 10.728 150.818 10.02 151.634 9.53998C152.474 9.03598 153.482 8.78398 154.658 8.78398C156.626 8.78398 158.09 9.34798 159.05 10.476C160.01 11.58 160.49 13.128 160.49 15.12V25.704H155.666V15.624Z" fill="#AA9BF8"/>
</svg>
